<?xml version="1.0" encoding="UTF-8"?>
<!DOCTYPE svg PUBLIC "-//W3C//DTD SVG 1.1//EN" "http://www.w3.org/Graphics/SVG/1.1/DTD/svg11.dtd">
<svg version="1.1" width="127.25mm" height="127.25mm" viewBox="0 0 12725 12725" preserveAspectRatio="xMidYMid" fill-rule="evenodd" clip-path="url(#presentation_clip_path)" stroke-width="28.222" stroke-linejoin="round" xmlns="http://www.w3.org/2000/svg" xmlns:ooo="http://xml.openoffice.org/svg/export" xmlns:xlink="http://www.w3.org/1999/xlink" xml:space="preserve">
 <defs class="ClipPathGroup">
  <clipPath id="presentation_clip_path" clipPathUnits="userSpaceOnUse">
   <rect x="0" y="0" width="12725" height="12725"/>
  </clipPath>
 </defs>
 <defs class="TextShapeIndex">
  
 </defs>
 <defs class="EmbeddedBulletChars">
  <g id="bullet-char-template57356" transform="scale(0.00048828125,-0.00048828125)">
   <path d="M 580,1141 L 1163,571 580,0 -4,571 580,1141 Z"/>
  </g>
  <g id="bullet-char-template57354" transform="scale(0.00048828125,-0.00048828125)">
   <path d="M 8,1128 L 1137,1128 1137,0 8,0 8,1128 Z"/>
  </g>
  <g id="bullet-char-template10146" transform="scale(0.00048828125,-0.00048828125)">
   <path d="M 174,0 L 602,739 174,1481 1456,739 174,0 Z M 1358,739 L 309,1346 659,739 1358,739 Z"/>
  </g>
  <g id="bullet-char-template10132" transform="scale(0.00048828125,-0.00048828125)">
   <path d="M 2015,739 L 1276,0 717,0 1260,543 174,543 174,936 1260,936 717,1481 1274,1481 2015,739 Z"/>
  </g>
  <g id="bullet-char-template10007" transform="scale(0.00048828125,-0.00048828125)">
   <path d="M 0,-2 C -7,14 -16,27 -25,37 L 356,567 C 262,823 215,952 215,954 215,979 228,992 255,992 264,992 276,990 289,987 310,991 331,999 354,1012 L 381,999 492,748 772,1049 836,1024 860,1049 C 881,1039 901,1025 922,1006 886,937 835,863 770,784 769,783 710,716 594,584 L 774,223 C 774,196 753,168 711,139 L 727,119 C 717,90 699,76 672,76 641,76 570,178 457,381 L 164,-76 C 142,-110 111,-127 72,-127 30,-127 9,-110 8,-76 1,-67 -2,-52 -2,-32 -2,-23 -1,-13 0,-2 Z"/>
  </g>
  <g id="bullet-char-template10004" transform="scale(0.00048828125,-0.00048828125)">
   <path d="M 285,-33 C 182,-33 111,30 74,156 52,228 41,333 41,471 41,549 55,616 82,672 116,743 169,778 240,778 293,778 328,747 346,684 L 369,508 C 377,444 397,411 428,410 L 1163,1116 C 1174,1127 1196,1133 1229,1133 1271,1133 1292,1118 1292,1087 L 1292,965 C 1292,929 1282,901 1262,881 L 442,47 C 390,-6 338,-33 285,-33 Z"/>
  </g>
  <g id="bullet-char-template9679" transform="scale(0.00048828125,-0.00048828125)">
   <path d="M 813,0 C 632,0 489,54 383,161 276,268 223,411 223,592 223,773 276,916 383,1023 489,1130 632,1184 813,1184 992,1184 1136,1130 1245,1023 1353,916 1407,772 1407,592 1407,412 1353,268 1245,161 1136,54 992,0 813,0 Z"/>
  </g>
  <g id="bullet-char-template8226" transform="scale(0.00048828125,-0.00048828125)">
   <path d="M 346,457 C 273,457 209,483 155,535 101,586 74,649 74,723 74,796 101,859 155,911 209,963 273,989 346,989 419,989 480,963 531,910 582,859 608,796 608,723 608,648 583,586 532,535 482,483 420,457 346,457 Z"/>
  </g>
  <g id="bullet-char-template8211" transform="scale(0.00048828125,-0.00048828125)">
   <path d="M -4,459 L 1135,459 1135,606 -4,606 -4,459 Z"/>
  </g>
 </defs>
 <defs class="TextEmbeddedBitmaps"/>
 <g>
  <g id="id2" class="Master_Slide">
   <g id="bg-id2" class="Background"/>
   <g id="bo-id2" class="BackgroundObjects"/>
  </g>
 </g>
 <g class="SlideGroup">
  <g>
   <g id="id1" class="Slide" clip-path="url(#presentation_clip_path)">
    <g class="Page">
     <g class="Group">
      <g class="com.sun.star.drawing.EllipseShape">
       <g id="id4">
        <path fill="rgb(255,255,255)" stroke="none" d="M 7733,11476 C 6792,11728 5935,11728 4994,11476 4053,11224 3310,10795 2621,10106 1932,9417 1504,8675 1252,7734 1000,6793 1000,5935 1252,4994 1504,4053 1932,3311 2621,2622 3310,1933 4053,1504 4994,1252 5935,1000 6792,1000 7733,1252 8674,1504 9416,1933 10105,2622 10794,3311 11223,4053 11475,4994 11727,5935 11727,6793 11475,7734 11223,8675 10794,9417 10105,10106 9416,10795 8674,11224 7733,11476 L 7733,11476 Z"/>
       </g>
      </g>
      <g class="com.sun.star.drawing.EllipseShape">
       <g id="id5">
        <path fill="rgb(255,255,0)" stroke="none" d="M 6363,6364 L 5902,1092 C 6226,1064 6501,1064 6825,1092 L 6363,6364 Z"/>
       </g>
      </g>
      
      <g class="com.sun.star.drawing.EllipseShape">
       <g id="id10">
        <path fill="rgb(0,0,255)" stroke="none" d="M 6363,6364 L 6825,11636 C 6501,11664 6226,11664 5902,11636 L 6363,6364 Z"/>
       </g>
      </g>
      <g class="com.sun.star.drawing.EllipseShape">
       <g id="id15">
        <path fill="rgb(255,213,0)" stroke="none" d="M 6363,6364 L 6825,1092 C 7148,1120 7419,1168 7733,1252 L 6363,6364 Z"/>
       </g>
      </g>
      <g class="com.sun.star.drawing.EllipseShape">
       <g id="id20">
        <path fill="rgb(0,42,255)" stroke="none" d="M 6363,6364 L 5902,11636 C 5579,11608 5307,11560 4994,11476 L 6363,6364 Z"/>
       </g>
      </g>
      <g class="com.sun.star.drawing.EllipseShape">
       <g id="id25">
        <path fill="rgb(255,170,0)" stroke="none" d="M 6363,6366 L 7733,1254 C 8047,1338 8306,1433 8600,1570 L 6363,6366 Z"/>
       </g>
      </g>
      <g class="com.sun.star.drawing.EllipseShape">
       <g id="id30">
        <path fill="rgb(0,85,255)" stroke="none" d="M 6363,6366 L 4994,11478 C 4680,11394 4421,11299 4127,11162 L 6363,6366 Z"/>
       </g>
      </g>
      <g class="com.sun.star.drawing.EllipseShape">
       <g id="id35">
        <path fill="rgb(255,128,0)" stroke="none" d="M 6363,6366 L 8600,1570 C 8894,1707 9133,1845 9399,2031 L 6363,6366 Z"/>
       </g>
      </g>
      <g class="com.sun.star.drawing.EllipseShape">
       <g id="id40">
        <path fill="rgb(0,127,255)" stroke="none" d="M 6363,6366 L 4127,11162 C 3833,11025 3594,10887 3328,10701 L 6363,6366 Z"/>
       </g>
      </g>
      <g class="com.sun.star.drawing.EllipseShape">
       <g id="id45">
        <path fill="rgb(255,85,0)" stroke="none" d="M 6363,6364 L 9399,2029 C 9665,2215 9876,2392 10105,2622 L 6363,6364 Z"/>
       </g>
      </g>
      <g class="com.sun.star.drawing.EllipseShape">
       <g id="id50">
        <path fill="rgb(0,170,255)" stroke="none" d="M 6363,6366 L 3328,10701 C 3062,10515 2851,10338 2621,10108 L 6363,6366 Z"/>
       </g>
      </g>
      <g class="com.sun.star.drawing.EllipseShape">
       <g id="id55">
        <path fill="rgb(255,43,0)" stroke="none" d="M 6361,6366 L 10103,2624 C 10333,2854 10510,3065 10696,3331 L 6361,6366 Z"/>
       </g>
      </g>
      <g class="com.sun.star.drawing.EllipseShape">
       <g id="id60">
        <path fill="rgb(0,212,255)" stroke="none" d="M 6361,6364 L 2619,10106 C 2390,9876 2213,9665 2026,9399 L 6361,6364 Z"/>
       </g>
      </g>
      <g class="com.sun.star.drawing.EllipseShape">
       <g id="id65">
        <path fill="rgb(255,0,0)" stroke="none" d="M 6361,6364 L 10696,3329 C 10883,3595 11020,3833 11158,4128 L 6361,6364 Z"/>
       </g>
      </g>
      <g class="com.sun.star.drawing.EllipseShape">
       <g id="id70">
        <path fill="rgb(0,255,255)" stroke="none" d="M 6361,6364 L 2026,9399 C 1840,9133 1702,8895 1565,8601 L 6361,6364 Z"/>
       </g>
      </g>
      <g class="com.sun.star.drawing.EllipseShape">
       <g id="id75">
        <path fill="rgb(255,0,42)" stroke="none" d="M 6361,6364 L 11158,4128 C 11295,4422 11389,4681 11473,4994 L 11473,4994 6361,6364 Z"/>
       </g>
      </g>
      <g class="com.sun.star.drawing.EllipseShape">
       <g id="id80">
        <path fill="rgb(0,255,213)" stroke="none" d="M 6361,6364 L 1565,8601 C 1428,8306 1334,8047 1250,7734 L 6361,6364 Z"/>
       </g>
      </g>
      <g class="com.sun.star.drawing.EllipseShape">
       <g id="id85">
        <path fill="rgb(255,0,85)" stroke="none" d="M 6361,6364 L 11473,4994 C 11557,5308 11605,5579 11633,5903 L 6361,6364 Z"/>
       </g>
      </g>
      <g class="com.sun.star.drawing.EllipseShape">
       <g id="id90">
        <path fill="rgb(0,255,170)" stroke="none" d="M 6361,6364 L 1250,7734 1250,7734 C 1166,7420 1118,7149 1089,6825 L 6361,6364 Z"/>
       </g>
      </g>
      <g class="com.sun.star.drawing.EllipseShape">
       <g id="id95">
        <path fill="rgb(255,0,127)" stroke="none" d="M 6363,6364 L 11635,5903 C 11664,6226 11664,6502 11635,6825 L 6363,6364 Z"/>
       </g>
      </g>
      <g class="com.sun.star.drawing.EllipseShape">
       <g id="id100">
        <path fill="rgb(0,255,128)" stroke="none" d="M 6363,6364 L 1091,6825 C 1063,6502 1063,6226 1091,5903 L 6363,6364 Z"/>
       </g>
      </g>
      <g class="com.sun.star.drawing.EllipseShape">
       <g id="id105">
        <path fill="rgb(255,0,170)" stroke="none" d="M 6363,6364 L 11635,6825 C 11607,7149 11559,7420 11475,7734 L 6363,6364 Z"/>
       </g>
      </g>
      <g class="com.sun.star.drawing.EllipseShape">
       <g id="id110">
        <path fill="rgb(0,255,85)" stroke="none" d="M 6361,6364 L 1089,5903 C 1118,5579 1166,5308 1250,4994 L 6361,6364 Z"/>
       </g>
      </g>
      <g class="com.sun.star.drawing.EllipseShape">
       <g id="id115">
        <path fill="rgb(255,0,212)" stroke="none" d="M 6363,6364 L 11475,7734 C 11391,8047 11297,8306 11160,8601 L 6363,6364 Z"/>
       </g>
      </g>
      <g class="com.sun.star.drawing.EllipseShape">
       <g id="id120">
        <path fill="rgb(0,255,43)" stroke="none" d="M 6363,6364 L 1252,4994 C 1336,4681 1430,4422 1567,4128 L 6363,6364 Z"/>
       </g>
      </g>
      <g class="com.sun.star.drawing.EllipseShape">
       <g id="id125">
        <path fill="rgb(255,0,255)" stroke="none" d="M 6363,6364 L 11160,8601 C 11022,8895 10885,9133 10698,9399 L 6363,6364 Z"/>
       </g>
      </g>
      <g class="com.sun.star.drawing.EllipseShape">
       <g id="id130">
        <path fill="rgb(0,255,0)" stroke="none" d="M 6363,6364 L 1567,4128 C 1704,3833 1842,3595 2028,3329 L 6363,6364 Z"/>
       </g>
      </g>
      <g class="com.sun.star.drawing.EllipseShape">
       <g id="id135">
        <path fill="rgb(213,0,255)" stroke="none" d="M 6363,6364 L 10698,9399 C 10512,9665 10335,9876 10105,10106 L 6363,6364 Z"/>
       </g>
      </g>
      <g class="com.sun.star.drawing.EllipseShape">
       <g id="id140">
        <path fill="rgb(42,255,0)" stroke="none" d="M 6363,6364 L 2028,3329 C 2215,3063 2392,2852 2621,2622 L 6363,6364 Z"/>
       </g>
      </g>
      <g class="com.sun.star.drawing.EllipseShape">
       <g id="id145">
        <path fill="rgb(170,0,255)" stroke="none" d="M 6363,6362 L 10105,10104 C 9876,10334 9665,10511 9399,10697 L 6363,6362 Z"/>
       </g>
      </g>
      <g class="com.sun.star.drawing.EllipseShape">
       <g id="id150">
        <path fill="rgb(85,255,0)" stroke="none" d="M 6363,6362 L 2621,2620 C 2851,2390 3062,2213 3328,2027 L 6363,6362 Z"/>
       </g>
      </g>
      <g class="com.sun.star.drawing.EllipseShape">
       <g id="id155">
        <path fill="rgb(128,0,255)" stroke="none" d="M 6361,6362 L 9397,10697 C 9131,10883 8892,11021 8598,11158 L 6361,6362 Z"/>
       </g>
      </g>
      <g class="com.sun.star.drawing.EllipseShape">
       <g id="id160">
        <path fill="rgb(127,255,0)" stroke="none" d="M 6361,6362 L 3326,2027 C 3592,1841 3831,1703 4125,1566 L 6361,6362 Z"/>
       </g>
      </g>
      <g class="com.sun.star.drawing.EllipseShape">
       <g id="id165">
        <path fill="rgb(85,0,255)" stroke="none" d="M 6361,6362 L 8598,11158 C 8304,11295 8045,11390 7731,11474 L 6361,6362 Z"/>
       </g>
      </g>
      <g class="com.sun.star.drawing.EllipseShape">
       <g id="id170">
        <path fill="rgb(170,255,0)" stroke="none" d="M 6361,6362 L 4125,1566 C 4419,1429 4678,1334 4992,1250 L 6361,6362 Z"/>
       </g>
      </g>
      <g class="com.sun.star.drawing.EllipseShape">
       <g id="id175">
        <path fill="rgb(43,0,255)" stroke="none" d="M 6361,6362 L 7731,11474 7731,11474 C 7417,11558 7146,11606 6823,11634 L 6361,6362 Z"/>
       </g>
      </g>
      <g class="com.sun.star.drawing.EllipseShape">
       <g id="id180">
        <path fill="rgb(212,255,0)" stroke="none" d="M 6361,6362 L 4992,1250 C 5305,1166 5577,1118 5900,1090 L 6361,6362 Z"/>
       </g>
      </g>
     </g>
    </g>
   </g>
  </g>
 </g>
</svg>